<svg  viewBox="0 0 106 100" fill="none" xmlns="http://www.w3.org/2000/svg">
<path d="M12.1451 23.1155C6.66943 12.5854 14.3103 0 26.1789 0V0C36.371 0 43.9028 9.49754 41.5809 19.4215L38.2908 33.4832C37.4592 37.0375 37.9579 40.7733 39.6928 43.985V43.985C45.1877 54.1573 59.6595 54.4983 65.6274 44.596L65.8886 44.1626C67.8874 40.8461 68.5475 36.8926 67.7345 33.1067L64.2557 16.9073C62.3874 8.20703 69.0191 0 77.9178 0V0C88.2072 0 94.9678 10.7442 90.5153 20.0203L55.588 92.7855C54.1614 95.7575 49.9539 95.8248 48.433 92.9L12.1451 23.1155Z" fill="#FF8C20"/>
<path d="M65.1313 43.9101C61.2048 45.4022 57 42.5018 57 38.3014L57 17.463C57 13.3282 61.0842 10.4326 64.986 11.8012L93.5016 21.8037C98.7809 23.6554 98.8767 31.0869 93.647 33.0741L65.1313 43.9101Z" fill="#1E5AFF"/>
</svg>
